# AST/ASF file generated using VICON BodyLanguage
# -----------------------------------------------
:version 1.10
:name VICON
:units
  mass 1.0
  length 0.45
  angle deg
:documentation
   .ast/.asf automatically generated from VICON data using
   VICON BodyBuilder and BodyLanguage model FoxedUp or BRILLIANT.MOD
:root
   order TX TY TZ RX RY RZ
   axis XYZ
   position 0 0 0  
   orientation 0 0 0 
:bonedata
  begin
     id 1 
     name lhipjoint
     direction 0.635376 -0.686425 0.353719 
     length 2.47244 
     axis 0 0 0  XYZ
  end
  begin
     id 2 
     name lfemur
     direction 0.34202 -0.939693 0  
     length 7.25268  
     axis 0 0 20  XYZ
    dof rx ry rz
    limits (-160.0 20.0)
           (-70.0 70.0)
           (-60.0 70.0)
  end
  begin
     id 3 
     name ltibia
     direction 0.34202 -0.939693 0   
     length 7.6767   
     axis 0 0 20   XYZ
    dof rx
    limits (-10.0 170.0)
  end
  begin
     id 4 
     name lfoot
     direction 0.0803374 -0.220725 0.972022   
     length 2.22945   
     axis -90 7.62852e-016 20   XYZ
    dof rx rz
    limits (-45.0 90.0)
           (-70.0 20.0)
  end
  begin
     id 5 
     name ltoes
     direction 1.53579e-011 -4.21994e-011 1   
     length 1.11848   
     axis -90 7.62852e-016 20   XYZ
    dof rx
    limits (-90.0 20.0)
  end
  begin
     id 6 
     name rhipjoint
     direction -0.664428 -0.664335 0.342336   
     length 2.55466  
     axis 0 0 0  XYZ 
  end
  begin
     id 7 
     name rfemur
     direction -0.34202 -0.939693 0   
     length 6.83172   
     axis 0 0 -20   XYZ
    dof rx ry rz
    limits (-160.0 20.0)
           (-70.0 70.0)
           (-70.0 60.0)
  end
  begin
     id 8 
     name rtibia
     direction -0.34202 -0.939693 0   
     length 7.62692   
     axis 0 0 -20   XYZ
    dof rx
    limits (-10.0 170.0)
 end
 begin
     id 9 
     name rfoot
     direction -0.0949276 -0.260811 0.960711   
     length 2.19684  
     axis -90 -7.62852e-016 -20   XYZ
    dof rx rz
    limits (-45.0 90.0)
           (-20.0 70.0)
  end
  begin
     id 10 
     name rtoes
     direction -1.53543e-011 -4.2183e-011 1   
     length 1.09848   
     axis -90 -7.62852e-016 -20   XYZ
    dof rx
    limits (-90.0 20.0)
  end
  begin
     id 11 
     name lowerback
     direction 0.0118782 0.999815 -0.0151555   
     length 2.15772   
     axis 0 0 0   XYZ
    dof rx ry rz
    limits (-20.0 45.0)
           (-30.0 30.0)
           (-30.0 30.0)
  end
  begin
     id 12 
     name upperback
     direction 0.00130825 0.999065 0.0432113   
     length 2.14863   
     axis 0 0 0   XYZ
    dof rx ry rz
    limits (-20.0 45.0)
           (-30.0 30.0)
           (-30.0 30.0)
  end
  begin
     id 13 
     name thorax
     direction -0.00347005 0.998773 0.0494011   
     length 2.14936   
     axis 0 0 0   XYZ
    dof rx ry rz
    limits (-20.0 45.0)
           (-30.0 30.0)
           (-30.0 30.0)
  end
  begin
     id 14 
     name lowerneck
     direction -0.0262159 0.99424 0.103921   
     length 1.69373   
     axis 0 0 0   XYZ
    dof rx ry rz
    limits (-20.0 45.0)
           (-30.0 30.0)
           (-30.0 30.0)
  end
  begin
     id 15 
     name upperneck
     direction 0.0353511 0.977394 -0.20845   
     length 1.70857   
     axis 0 0 0   XYZ
    dof rx ry rz
    limits (-20.0 45.0)
           (-30.0 30.0)
           (-30.0 30.0)
  end
  begin
     id 16
     name head
     direction 0.0139214 0.996594 -0.0812836  
     length 1.72777  
     axis 0 0 0   XYZ
    dof rx ry rz
    limits (-20.0 45.0)
           (-30.0 30.0)
           (-30.0 30.0)
  end
  begin
     id 17 
     name lclavicle
     direction 0.841247 0.537205 -0.0609508  
     length 3.55371  
     axis 0 0 0   XYZ
    dof ry rz
    limits (-20.0 10.0)
           (0.0 20.0)
  end
  begin
     id 18 
     name lhumerus
     direction 1 -4.48964e-011 1.60116e-018   
     length 4.91377   
     axis -180 -30 -90   XYZ
    dof rx ry rz
    limits (-60.0 90.0)
           (-90.0 90.0)
           (-90.0 90.0)
  end
  begin
     id 19
     name lradius
     direction 1 -4.48989e-011 -8.93847e-027   
     length 3.00291   
     axis -180 -30 -90   XYZ
    dof rx
    limits (-10.0 170.0)
  end
  begin
     id 20
     name lwrist
     direction 1 -4.48932e-011 -7.31504e-027   
     length 1.50145   
     axis 5.74121e-015 90 90   XYZ
    dof ry
    limits (-180.0 0.0)
 end
  begin
     id 21 
     name lhand
     direction 1 -4.48971e-011 -1.46301e-026   
     length 0.450922   
     axis 9.33524e-015 90 90   XYZ
    dof rx rz
    limits (-90.0 90.0)
           (-45.0 45.0)
  end
  begin
     id 22 
     name lfingers
     direction 1 -4.49039e-011 -2.92602e-026   
     length 0.363545   
     axis 1.86705e-014 90 90   XYZ
    dof rx
    limits (0.0 90.0)
  end
  begin
     id 23
     name lthumb
     direction 0.707107 -6.34941e-011 0.707107   
     length 0.52198   
     axis -90 45 2.85299e-015   XYZ
    dof rx rz
    limits (-45.0 45.0)
           (-45.0 45.0)
  end
  begin
     id 24 
     name rclavicle
     direction -0.825079 0.56158 -0.0622297   
     length 3.39909  
     axis 0 0 0   XYZ 
    dof ry rz
    limits (-10.0 20.0)
           (-20.0 0.0)
  end
  begin
     id 25 
     name rhumerus
     direction -1 -4.48965e-011 1.61691e-027  
     length 4.86725   
     axis -180 30 90   XYZ
    dof rx ry rz
    limits (-90.0 60.0)
           (-90.0 90.0)
           (-90.0 90.0)
  end
  begin
     id 26 
     name rradius
     direction -1 -4.48964e-011 -2.25776e-027   
     length 3.17144   
     axis -180 30 90   XYZ
    dof rx
    limits (-10.0 170.0)
  end
  begin
     id 27 
     name rwrist
     direction -1 -4.48961e-011 -7.31504e-027   
     length 1.58572   
     axis 5.74121e-015 -90 -90   XYZ
    dof ry
    limits (-180.0 0.0)
  end
  begin
     id 28
     name rhand
     direction -1 -4.49013e-011 -1.46301e-026   
     length 0.419368   
     axis 9.33524e-015 -90 -90   XYZ
    dof rx rz
    limits (-90.0 90.0)
           (-45.0 45.0)
  end
  begin
     id 29
     name rfingers
     direction -1 -4.489e-011 -2.92602e-026   
     length 0.338105   
     axis 1.86705e-014 -90 -90   XYZ
    dof rx
    limits (0.0 90.0)
  end
  begin
     id 30
     name rthumb
     direction -0.707107 -6.35022e-011 0.707107   
     length 0.485453   
     axis -90 -45 -2.85299e-015   XYZ
    dof rx rz
    limits (-45.0 45.0)
           (-45.0 45.0)
  end
:hierarchy
  begin
    root lhipjoint rhipjoint lowerback
    lhipjoint lfemur
    lfemur ltibia
    ltibia lfoot
    lfoot ltoes
    rhipjoint rfemur
    rfemur rtibia
    rtibia rfoot
    rfoot rtoes
    lowerback upperback
    upperback thorax
    thorax lowerneck lclavicle rclavicle
    lowerneck upperneck
    upperneck head
    lclavicle lhumerus
    lhumerus lradius
    lradius lwrist
    lwrist lhand lthumb
    lhand lfingers
    rclavicle rhumerus
    rhumerus rradius
    rradius rwrist
    rwrist rhand rthumb
    rhand rfingers
  end

#!OML:ASF H:\Swim 2\Project 1\Capture day 1\Session 1\male.ASF
:FULLY-SPECIFIED
:DEGREES
744
root -0.770566 15.226 10.0115 113.793 30.2108 12.2119
lowerback -16.2558 -3.71362 20.4096
upperback -10.782 -8.30726 -12.3324
thorax -7.60883 -7.03573 -27.6172
lowerneck -26.5173 4.84888 3.34245
upperneck 41.5358 9.30987 -5.45578
head 22.1267 3.16094 -1.07109
rclavicle -1.43125e-013 -1.05753e-013
rhumerus -45.394 19.456 -51.6115
rradius 29.2977
rwrist -16.8791
rhand 12.0782 3.07903
rfingers 7.12502
rthumb 37.0946 -22.9609
lclavicle -1.43125e-013 -1.05753e-013
lhumerus -646.9 12.7121 695.43
lradius 36.1218
lwrist 56.507
lhand -36.8889 -3.63231
lfingers 7.12502
lthumb -9.96742 26.1117
rfemur -41.4817 6.27155 23.4759
rtibia 25.1968
rfoot 44.2405 1.14378
rtoes 28.0188
lfemur -34.7141 11.4743 -10.792
ltibia 92.0111
lfoot -12.6876 -7.89381
ltoes -17.836
745
root -0.784867 15.2395 10.0094 113.805 30.0228 12.3216
lowerback -16.1126 -3.51726 20.4285
upperback -11.0583 -8.00212 -12.6546
thorax -7.8896 -6.98572 -28.1512
lowerneck -24.8946 4.6404 3.6697
upperneck 41.4112 8.83822 -5.43123
head 21.5168 3.10274 -1.26551
rclavicle 1.27222e-014 2.38542e-015
rhumerus -44.488 16.7334 -47.6479
rradius 29.8679
rwrist -17.1542
rhand 13.1333 2.79818
rfingers 7.12502
rthumb 38.0917 -22.976
lclavicle 1.27222e-014 2.38542e-015
lhumerus -645.618 11.9558 696.435
lradius 36.1681
lwrist 56.166
lhand -36.939 -3.53049
lfingers 7.12502
lthumb -10.0158 26.2112
rfemur -41.3411 6.24328 23.6176
rtibia 27.7222
rfoot 43.6718 1.50897
rtoes 28.2049
lfemur -36.6627 12.4231 -12.118
ltibia 92.4215
lfoot -12.6699 -7.20591
ltoes -17.438
746
root -0.799152 15.2526 10.0047 113.793 29.8781 12.3981
lowerback -15.9963 -3.21715 20.4336
upperback -11.4095 -7.54209 -13.0418
thorax -8.15124 -6.86257 -28.7982
lowerneck -22.7721 4.33724 4.13273
upperneck 41.2313 8.20766 -5.43953
head 20.7272 3.0128 -1.54043
rclavicle -1.33583e-013 -4.21423e-014
rhumerus -44.2406 14.2979 -44.0882
rradius 30.902
rwrist -17.8948
rhand 13.9403 2.58131
rfingers 7.12502
rthumb 38.8532 -22.9806
lclavicle -1.33583e-013 -4.21423e-014
lhumerus -644.079 11.0368 697.533
lradius 36.2226
lwrist 55.6759
lhand -37.0211 -3.50425
lfingers 7.12502
lthumb -10.095 26.2336
rfemur -41.0909 6.16465 23.8117
rtibia 30.1181
rfoot 43.1399 1.86153
rtoes 28.2195
lfemur -38.6616 13.1907 -13.4545
ltibia 92.5794
lfoot -12.6502 -6.61517
ltoes -17.1469
747
root -0.813309 15.2647 9.99728 113.741 29.7672 12.4081
lowerback -15.8921 -2.8651 20.4049
upperback -11.7633 -6.99626 -13.4366
thorax -8.34253 -6.67656 -29.4445
lowerneck -20.524 3.97566 4.63952
upperneck 41.0027 7.52134 -5.47793
head 19.8859 2.89824 -1.83922
rclavicle 1.11319e-014 -8.26944e-014
rhumerus -44.3108 12.2274 -40.852
rradius 32.3278
rwrist -18.9278
rhand 14.306 2.50016
rfingers 7.12502
rthumb 39.198 -22.9629
lclavicle 1.11319e-014 -8.26944e-014
lhumerus -642.489 10.0826 698.664
lradius 36.2772
lwrist 55.124
lhand -37.1075 -3.57538
lfingers 7.12502
lthumb -10.1784 26.1584
rfemur -40.7562 6.07336 24.0237
rtibia 32.4151
rfoot 42.6621 2.17279
rtoes 28.2382
lfemur -40.6749 13.7805 -14.793
ltibia 92.4705
lfoot -12.6312 -6.08769
ltoes -17.0358
748
root -0.827735 15.2752 9.98684 113.634 29.7003 12.3386
lowerback -15.7703 -2.54488 20.3779
upperback -12.0425 -6.49073 -13.7527
thorax -8.46144 -6.48115 -29.9619
lowerneck -18.5845 3.63788 5.07092
upperneck 40.7507 6.92401 -5.5217
head 19.1415 2.78542 -2.08832
rclavicle 2.54444e-014 7.99114e-014
rhumerus -44.2385 10.5105 -37.8777
rradius 34.0459
rwrist -20.0932
rhand 14.2183 2.5853
rfingers 7.12502
rthumb 39.1154 -22.9016
lclavicle 2.54444e-014 7.99114e-014
lhumerus -641.146 9.23779 699.735
lradius 36.325
lwrist 54.5887
lhand -37.1748 -3.7384
lfingers 7.12502
lthumb -10.2433 25.9922
rfemur -40.3437 5.98034 24.2618
rtibia 34.627
rfoot 42.2272 2.46682
rtoes 28.2232
lfemur -42.6646 14.2073 -16.0846
ltibia 92.0965
lfoot -12.6168 -5.60529
ltoes -17.058
